<?xml version="1.0" encoding="UTF-8" standalone="no"?>
<svg xmlns:rdf="http://www.w3.org/1999/02/22-rdf-syntax-ns#" xmlns="http://www.w3.org/2000/svg" height="68" width="815" version="1.1" xmlns:cc="http://creativecommons.org/ns#" xmlns:dc="http://purl.org/dc/elements/1.1/" viewBox="0 0 814.62701 68.000977">
<path d="m0.667 37.1h802c3.55 0.367 3.72 1.14 3.72 2.74h-806z" stroke="#00cd00" stroke-width=".4" fill="#00cd00"/>
<path d="m0.667 19.1h792c3.5 0.367 3.68 1.14 3.67 2.75h-795z" stroke="#ff7e00" stroke-width=".4" fill="#ff7e00"/>
<path d="m0.667 28.1h810c3.58 0.367 3.76 1.14 3.76 2.74h-814z" stroke="#9520ff" stroke-width=".4" fill="#9520ff"/>
<path d="m0.657 46.4 785-0.3s2.58 1.31 2.58 2.76h-788z" stroke="#ffc200" stroke-width=".4" fill="#ffc200"/>
<path d="m59.2 0.026c209-0.0656 430 0.0709 641 0l11.8 67.8c-218-0.392-434 0.511-652 0-43.7-8.84-38.9-62.9 0-67.8z" fill="#fff"/>
<g fill="#3e7eff" transform="matrix(1.1 0 0 1.18 122 -526)">
<path d="m18.4 481 2.18 1.42q-4.35 5.76-11 5.76-2.69 0-5.17-1.02-2.46-1.02-4.25-2.74-1.77-1.72-2.83-4.11-1.06-2.4-1.06-5.05 0-2.64 1.06-5.05 1.06-2.4 2.83-4.14 1.79-1.74 4.25-2.76 2.47-1.02 5.17-1.02 1.36 0 2.64 0.256t2.25 0.648q0.972 0.375 1.89 0.938 0.921 0.563 1.53 1.07 0.614 0.494 1.21 1.13 0.597 0.614 0.887 0.972 0.29 0.341 0.58 0.75l-2.15 1.55q-0.46-0.58-0.75-0.921t-1.19-1.14q-0.887-0.801-1.76-1.28-0.87-0.494-2.27-0.904-1.38-0.409-2.88-0.409-2.17 0-4.13 0.818t-3.38 2.2-2.25 3.31q-0.818 1.91-0.818 4.02 0 2.1 0.818 4.01 0.835 1.91 2.23 3.31 1.42 1.38 3.38 2.2 1.98 0.818 4.14 0.818 1.48 0 2.85-0.392 1.38-0.392 2.28-0.904 0.904-0.511 1.74-1.24 0.852-0.733 1.21-1.16 0.375-0.426 0.733-0.921z"/>
<path d="m49.3 470q1.06 2.4 1.06 5.05 0 2.64-1.06 5.05-1.04 2.39-2.83 4.11-1.77 1.72-4.23 2.74-2.44 1.02-5.11 1.02-2.69 0-5.17-1.02-2.46-1.02-4.25-2.74-1.77-1.72-2.83-4.11-1.06-2.4-1.06-5.05 0-2.64 1.06-5.05 1.06-2.4 2.83-4.14 1.79-1.74 4.25-2.76 2.47-1.02 5.17-1.02 2.68 0 5.11 1.02 2.46 1.02 4.23 2.76 1.79 1.74 2.83 4.14zm-22.7 5.05q0 2.1 0.818 4.01 0.835 1.91 2.23 3.31 1.42 1.38 3.38 2.2 1.98 0.818 4.14 0.818 2.86 0 5.29-1.38 2.44-1.4 3.85-3.77 1.42-2.39 1.42-5.18 0-2.81-1.42-5.2t-3.85-3.77q-2.42-1.38-5.29-1.38-2.17 0-4.13 0.818t-3.38 2.2-2.25 3.31q-0.818 1.91-0.818 4.02z"/>
<path d="m54.4 463h2.71v15.7q0 3.12 2.03 5.29 2.05 2.15 4.81 2.15 1.79 0 3.32-0.955 1.53-0.972 2.46-2.69 0.938-1.72 0.938-3.78v-15.7h2.71v15.7q0 2.71-1.26 5.03t-3.46 3.68q-2.18 1.35-4.79 1.35-1.94 0-3.72-0.801-1.76-0.801-3.02-2.15-1.24-1.36-1.99-3.22-0.733-1.86-0.733-3.89v-15.7z"/>
<path d="m78.1 488v-25.7l21 19.5v-19.3h2.71v25.7l-21-19.5v19.2h-2.71z"/>
<path d="m120 463v2.63h-6.48v22.8h-2.66v-22.8h-6.5v-2.63h15.6z"/>
<path d="m123 488v-25.5h9.46q2.93 0 4.98 2.08 2.05 2.06 2.05 4.98 0 2.32-1.35 4.16-1.33 1.82-3.46 2.52l6.6 11.7h-3.09l-6.41-11.4h-6.07v11.4h-2.71zm2.71-14h6.84q1.72 0 2.97-1.26 1.26-1.28 1.26-3.09 0-1.84-1.26-3.14t-3.05-1.3h-6.75v8.78z"/>
<path d="m147 488h-2.71v-25.5h2.71v25.5z"/>
<path d="m166 472v2.63h-12v10.7h12.9v2.63h-15.7v-25.5h15.7v2.63h-13v6.84h12z"/>
<path d="m186 468-2.54 0.87-0.188-0.563q-0.546-1.53-1.74-2.34-1.19-0.801-2.61-0.801-1.65 0-2.69 1.06-1.04 1.04-1.04 2.54 0 0.801 0.409 1.45 0.426 0.648 1.13 1.11 0.699 0.46 1.62 0.887 0.921 0.409 1.93 0.835 1.01 0.409 2.01 0.87 1.01 0.443 1.93 1.07 0.921 0.614 1.62 1.38 0.699 0.75 1.11 1.86 0.426 1.09 0.426 2.42 0 2.27-1.21 4.11-1.21 1.82-3.14 2.8-1.93 0.955-4.13 0.955-1.45 0-2.78-0.46t-2.49-1.36q-1.14-0.904-1.96-2.4-0.818-1.52-1.09-3.46l-0.0852-0.58 2.68-0.324 0.0852 0.546q0.205 1.38 0.75 2.46 0.546 1.06 1.31 1.69 0.767 0.614 1.67 0.938 0.904 0.307 1.91 0.307 2.34 0 4.06-1.47 1.74-1.47 1.74-3.8 0-1.26-0.682-2.22-0.665-0.955-1.74-1.55-1.06-0.614-2.37-1.14-1.3-0.546-2.59-1.13-1.3-0.58-2.37-1.3-1.06-0.716-1.74-1.86-0.665-1.16-0.665-2.68 0-2.57 1.79-4.38 1.79-1.82 4.6-1.82 2.23 0 4.14 1.3t2.73 3.65l0.205 0.546z"/>
<path d="m203 476v2.76h-11.7v-2.76h11.7z"/>
<path d="m223 475q1.24 2.05 1.24 4.47t-1.24 4.47-3.38 3.24q-2.13 1.18-4.64 1.18-2.52 0-4.67-1.18-2.13-1.19-3.38-3.24-1.24-2.05-1.24-4.47t1.24-4.47q1.24-2.06 3.38-3.24 2.15-1.19 4.67-1.19 2.51 0 4.64 1.19 2.13 1.18 3.38 3.24zm-14.6 4.47q0 2.64 1.93 4.48t4.67 1.84 4.69-1.84q1.94-1.86 1.94-4.48 0-2.61-1.94-4.45-1.94-1.86-4.69-1.86-2.74 0-4.67 1.86-1.93 1.84-1.93 4.45z"/>
<path d="m229 473h-1.45v-2.61h1.45v-0.887q0-2.88 1.98-4.94 1.98-2.08 4.82-2.08h0.597v2.11h-0.597q-1.59 0-2.85 1.48-1.24 1.48-1.24 3.43v0.887h4.93l-0.904 2.61h-4.02v14.7h-2.71v-14.7z"/>
<path d="m241 488h-2.71v-14.7h-1.48v-2.54h1.48v-3.82h2.71v3.82h4.93l-0.904 2.54h-4.02v14.7z"/>
<path d="m249 488v-25.5h2.71v11.2q1.04-1.43 2.4-2.35 1.38-0.938 2.71-0.938 1.43 0 2.56 0.58 1.13 0.563 1.81 1.55 0.682 0.989 1.02 2.23 0.341 1.23 0.341 2.63v10.6h-2.68v-10.6q0-0.784-0.153-1.5-0.136-0.716-0.46-1.4-0.324-0.699-0.955-1.11-0.631-0.426-1.52-0.426-1.13 0-2.35 1.14-1.21 1.14-1.98 2.64-0.75 1.48-0.75 2.56v8.66h-2.71z"/>
<path d="m269 477h10.8q-0.546-1.94-2.06-3.15-1.5-1.21-3.34-1.21-1.81 0-3.32 1.21-1.5 1.21-2.1 3.15zm-0.307 2.52q0.205 2.46 1.86 4.09 1.65 1.62 3.8 1.62 1.69 0 3.14-0.852 1.45-0.87 2.44-2.54l2.32 1.24q-0.665 1.18-1.55 2.08-0.887 0.887-1.72 1.38-0.835 0.494-1.76 0.801-0.921 0.307-1.59 0.392-0.648 0.0853-1.28 0.0853-2.32 0-4.25-1.21t-3.02-3.24q-1.07-2.05-1.07-4.43 0-2.37 1.11-4.4 1.11-2.05 3.05-3.27 1.94-1.23 4.25-1.23 2.2 0 4.06 1.11t2.98 2.98q1.13 1.86 1.31 4.07l0.0682 1.31h-14.2z"/>
<path d="m298 476v2.76h-11.7v-2.76h11.7z"/>
<path d="m301 463h2.74l6.9 17.7 7.18-18 7.21 18 6.82-17.7h2.86l-9.72 25.7-7.11-17.8-7.13 17.8-9.77-25.7z"/>
<path d="m361 470q1.06 2.4 1.06 5.05 0 2.64-1.06 5.05-1.04 2.39-2.83 4.11-1.77 1.72-4.23 2.74-2.44 1.02-5.11 1.02-2.69 0-5.17-1.02-2.46-1.02-4.25-2.74-1.77-1.72-2.83-4.11-1.06-2.4-1.06-5.05 0-2.64 1.06-5.05 1.06-2.4 2.83-4.14 1.79-1.74 4.25-2.76 2.47-1.02 5.17-1.02 2.68 0 5.11 1.02 2.46 1.02 4.23 2.76 1.79 1.74 2.83 4.14zm-22.7 5.05q0 2.1 0.818 4.01 0.835 1.91 2.23 3.31 1.42 1.38 3.38 2.2 1.98 0.818 4.14 0.818 2.86 0 5.29-1.38 2.44-1.4 3.85-3.77 1.42-2.39 1.42-5.18 0-2.81-1.42-5.2t-3.85-3.77q-2.42-1.38-5.29-1.38-2.17 0-4.13 0.818t-3.38 2.2-2.25 3.31q-0.818 1.91-0.818 4.02z"/>
<path d="m366 488v-25.5h9.46q2.93 0 4.98 2.08 2.05 2.06 2.05 4.98 0 2.32-1.35 4.16-1.33 1.82-3.46 2.52l6.6 11.7h-3.09l-6.41-11.4h-6.07v11.4h-2.71zm2.71-14h6.84q1.72 0 2.97-1.26 1.26-1.28 1.26-3.09 0-1.84-1.26-3.14t-3.05-1.3h-6.75v8.78z"/>
<path d="m402 488h-15.7v-25.5h2.71v22.8h13v2.63z"/>
<path d="m409 485h2.93q2.9 0 5.32-1.31 2.42-1.33 3.84-3.65t1.42-5.11q0-2.81-1.42-5.13-1.42-2.34-3.84-3.67t-5.32-1.33h-2.93v20.2zm-2.71 2.63v-25.5h5.64q3.6 0 6.63 1.69 3.05 1.67 4.82 4.6 1.79 2.93 1.79 6.46 0 3.51-1.79 6.44-1.77 2.92-4.82 4.59-3.03 1.67-6.63 1.67h-5.64z"/>
<path d="m432 484q0.852 0 1.45 0.597 0.597 0.597 0.597 1.43 0 0.818-0.614 1.42-0.597 0.597-1.43 0.597-0.818 0-1.42-0.597-0.597-0.597-0.597-1.42 0-0.835 0.597-1.43 0.597-0.597 1.42-0.597z"/>
<path d="m460 481 2.18 1.42q-4.35 5.76-11 5.76-2.69 0-5.17-1.02-2.46-1.02-4.25-2.74-1.77-1.72-2.83-4.11-1.06-2.4-1.06-5.05 0-2.64 1.06-5.05 1.06-2.4 2.83-4.14 1.79-1.74 4.25-2.76 2.47-1.02 5.17-1.02 1.36 0 2.64 0.256t2.25 0.648q0.972 0.375 1.89 0.938 0.921 0.563 1.53 1.07 0.614 0.494 1.21 1.13 0.597 0.614 0.887 0.972 0.29 0.341 0.58 0.75l-2.15 1.55q-0.46-0.58-0.75-0.921t-1.19-1.14q-0.887-0.801-1.76-1.28-0.87-0.494-2.27-0.904-1.38-0.409-2.88-0.409-2.17 0-4.13 0.818t-3.38 2.2-2.25 3.31q-0.818 1.91-0.818 4.02 0 2.1 0.818 4.01 0.835 1.91 2.23 3.31 1.42 1.38 3.38 2.2 1.98 0.818 4.14 0.818 1.48 0 2.85-0.392 1.38-0.392 2.28-0.904 0.904-0.511 1.74-1.24 0.852-0.733 1.21-1.16 0.375-0.426 0.733-0.921z"/>
<path d="m491 470q1.06 2.4 1.06 5.05 0 2.64-1.06 5.05-1.04 2.39-2.83 4.11-1.77 1.72-4.23 2.74-2.44 1.02-5.11 1.02-2.69 0-5.17-1.02-2.46-1.02-4.25-2.74-1.77-1.72-2.83-4.11-1.06-2.4-1.06-5.05 0-2.64 1.06-5.05 1.06-2.4 2.83-4.14 1.79-1.74 4.25-2.76 2.47-1.02 5.17-1.02 2.68 0 5.11 1.02 2.46 1.02 4.23 2.76 1.79 1.74 2.83 4.14zm-22.7 5.05q0 2.1 0.818 4.01 0.835 1.91 2.23 3.31 1.42 1.38 3.38 2.2 1.98 0.818 4.14 0.818 2.86 0 5.29-1.38 2.44-1.4 3.85-3.77 1.42-2.39 1.42-5.18 0-2.81-1.42-5.2t-3.85-3.77q-2.42-1.38-5.29-1.38-2.17 0-4.13 0.818t-3.38 2.2-2.25 3.31q-0.818 1.91-0.818 4.02z"/>
<path d="m497 488h-2.63l5.25-25.7 9.33 19.2 9.5-19.2 5.11 25.7h-2.74l-3.44-16.6-8.51 16.9-8.29-16.9-3 17z"/>
</g>
<g transform="translate(1.65 -17.9)">
<path stroke-linejoin="round" d="m74.3 23c-0.37 0.00059-0.74 0.008-1.11 0.0212-2.02 0.0739-4.04 0.341-6 0.796-13.7 3.2-23.3 15-23.2 28.4 0.2 13.4 10.1 25 23.9 27.9s27.8-3.6 34.1-15.8c-1-0.3-2.2-0.5-3.3-0.7-5.6 10.6-18.1 16.3-30.3 13.7-12.5-2.6-21.3-13-21.5-25.1-0.1-12.1 8.5-22.7 20.9-25.6 1.77-0.41 3.58-0.649 5.4-0.716 10.7-0.39 20.6 5.18 25.4 14.3 0.954-0.406 1.91-0.824 2.88-1.26-5.7-9.8-16.2-15.9-27.7-15.9z" stroke="#3e7eff" stroke-linecap="round" stroke-width="10.2" fill="#3e7eff"/>
<path d="m53 40.4c-1.83-0.0441-3.04 1.98-2.2 3.68l10.7 22.4c0.89 1.86 3.44 1.86 4.33 0l8.54-17.9 8.54 17.9c0.89 1.87 3.44 1.86 4.33-0.003l10-21.1 0.918-2.43c0.116-2.96-3.99-3.53-4.58-1.22l-8.4 17.9-8.5-17.9c-0.89-1.86-3.44-1.86-4.33 0l-8.6 17.9-8.5-17.9c-0.394-0.855-1.21-1.41-2.12-1.43z" fill-rule="evenodd" stroke="#c8e856" stroke-width="2.03" fill="#c8e856"/>
</g>
</svg>